<svg xmlns="http://www.w3.org/2000/svg" viewBox="0 0 36 36">
  <style>
    .fleuron {
      fill: #000;
    }

    @media (prefers-color-scheme: dark) {
      .fleuron {
        fill: #fff;
      }
    }
  </style>
  <path
    class="fleuron"
    transform="translate(2.3 33) scale(0.04143)"
    d="M 477.050781 -516.113281 C 471.84375 -504.070312 461.75 -484.375 446.777344 -457.03125 C 433.757812 -434.246094 425.128906 -413.574219 420.898438 -395.019531 C 448.566406 -419.757812 481.933594 -432.128906 520.996094 -432.128906 C 554.199219 -432.128906 581.296875 -423.910156 602.296875 -407.46875 C 623.289062 -391.03125 633.789062 -368.488281 633.789062 -339.84375 C 633.789062 -300.78125 618.816406 -266.765625 588.867188 -237.792969 C 558.917969 -208.820312 503.253906 -184.246094 421.875 -164.0625 C 365.234375 -149.089844 329.425781 -137.042969 314.453125 -127.929688 C 299.480469 -118.816406 291.992188 -105.792969 291.992188 -88.867188 C 291.992188 -71.613281 300.863281 -57.128906 318.601562 -45.410156 C 336.34375 -33.691406 356.445312 -27.832031 378.90625 -27.832031 C 387.042969 -27.832031 395.183594 -28.972656 403.320312 -31.25 C 411.457031 -33.527344 425.945312 -41.179688 446.777344 -54.199219 C 469.238281 -66.894531 487.628906 -73.242188 501.953125 -73.242188 C 512.371094 -73.242188 521.320312 -70.554688 528.808594 -65.1875 C 536.296875 -59.8125 540.039062 -53.058594 540.039062 -44.921875 C 540.039062 -29.621094 529.460938 -15.789062 508.300781 -3.417969 C 487.140625 8.953125 452.960938 15.136719 405.761719 15.136719 C 321.453125 15.136719 247.722656 -13.101562 184.570312 -69.578125 C 121.417969 -126.058594 89.84375 -196.453125 89.84375 -280.761719 C 89.84375 -321.453125 97.820312 -357.179688 113.769531 -387.9375 C 129.71875 -418.703125 151.125 -443.929688 177.976562 -463.625 C 204.835938 -483.316406 235.1875 -493.164062 269.042969 -493.164062 C 297.039062 -493.164062 321.53125 -486.652344 342.53125 -473.632812 C 363.523438 -460.613281 374.023438 -439.777344 374.023438 -411.132812 C 378.582031 -426.433594 387.207031 -446.453125 399.902344 -471.191406 C 406.738281 -482.910156 415.363281 -500.164062 425.78125 -522.949219 C 382.8125 -533.691406 341.472656 -556.316406 301.757812 -590.820312 C 273.4375 -616.210938 254.3125 -631.429688 244.382812 -636.476562 C 234.457031 -641.519531 222.65625 -644.042969 208.984375 -644.042969 C 197.589844 -644.042969 187.335938 -642.089844 178.222656 -638.183594 C 169.109375 -634.277344 162.921875 -630.207031 159.667969 -625.976562 C 156.414062 -621.746094 154.132812 -614.09375 152.832031 -603.027344 C 151.203125 -582.195312 137.859375 -571.777344 112.792969 -571.777344 C 100.75 -571.777344 91.632812 -574.300781 85.449219 -579.34375 C 79.265625 -584.390625 76.171875 -590.007812 76.171875 -596.191406 C 76.171875 -617.023438 97.332031 -639.730469 139.648438 -664.304688 C 181.964844 -688.882812 236.816406 -701.171875 304.199219 -701.171875 C 359.539062 -701.171875 405.03125 -688.800781 440.671875 -664.0625 C 476.320312 -639.324219 494.140625 -610.351562 494.140625 -577.148438 C 494.140625 -572.917969 492.839844 -563.152344 490.234375 -547.851562 C 500.324219 -546.550781 506.183594 -545.898438 507.8125 -545.898438 C 526.042969 -545.898438 543.78125 -551.023438 561.035156 -561.28125 C 578.289062 -571.53125 586.914062 -584.472656 586.914062 -600.097656 C 586.914062 -606.933594 585.613281 -615.234375 583.007812 -625 C 580.402344 -637.371094 579.101562 -650.066406 579.101562 -663.085938 C 579.101562 -693.683594 596.027344 -708.984375 629.882812 -708.984375 C 643.878906 -708.984375 655.925781 -705.730469 666.015625 -699.21875 C 676.105469 -692.707031 681.152344 -686.035156 681.152344 -679.199219 C 681.152344 -671.386719 674.480469 -663.25 661.132812 -654.785156 C 650.714844 -649.578125 644.367188 -644.289062 642.089844 -638.914062 C 639.8125 -633.546875 638.183594 -622.558594 637.207031 -605.957031 C 637.207031 -590.332031 635.824219 -579.34375 633.054688 -573 C 630.289062 -566.648438 624.347656 -558.757812 615.234375 -549.316406 C 606.121094 -539.875 591.960938 -531.65625 572.753906 -524.65625 C 553.546875 -517.660156 532.550781 -514.160156 509.765625 -514.160156 C 505.859375 -514.160156 494.953125 -514.8125 477.050781 -516.113281 Z M 440.917969 -555.175781 C 443.523438 -567.546875 444.824219 -577.472656 444.824219 -584.960938 C 444.824219 -606.121094 431.152344 -625.242188 403.808594 -642.335938 C 376.464844 -659.421875 345.214844 -667.96875 310.058594 -667.96875 C 298.339844 -667.96875 283.039062 -666.015625 264.160156 -662.109375 C 280.761719 -656.574219 291.503906 -652.34375 296.386719 -649.414062 C 301.269531 -646.484375 312.5 -637.371094 330.078125 -622.070312 C 355.46875 -598.632812 375.570312 -583.007812 390.382812 -575.195312 C 405.191406 -567.382812 422.039062 -560.710938 440.917969 -555.175781 Z M 440.917969 -555.175781"
  />
</svg>
